<svg width="22" height="22" viewBox="0 0 22 22" fill="none" xmlns="http://www.w3.org/2000/svg">
<path fill-rule="evenodd" clip-rule="evenodd" d="M16 0H21C21.2652 0 21.5196 0.105357 21.7071 0.292893C21.8946 0.48043 22 0.734784 22 1V6H20V3.414L15.707 7.707L14.293 6.293L18.586 2H16V0ZM0 1C0 0.734784 0.105357 0.48043 0.292893 0.292893C0.48043 0.105357 0.734784 0 1 0L6 0V2H3.414L7.707 6.293L6.293 7.707L2 3.414V6H0V1ZM15.707 14.293L20 18.586V16H22V21C22 21.2652 21.8946 21.5196 21.7071 21.7071C21.5196 21.8946 21.2652 22 21 22H16V20H18.586L14.293 15.707L15.707 14.293ZM7.707 15.707L3.414 20H6V22H1C0.734784 22 0.48043 21.8946 0.292893 21.7071C0.105357 21.5196 0 21.2652 0 21V16H2V18.586L6.293 14.293L7.707 15.707Z" fill="#12151B"/>
</svg>
