<svg width="24" height="26" viewBox="0 0 24 26" fill="none" xmlns="http://www.w3.org/2000/svg">
<path fill-rule="evenodd" clip-rule="evenodd" d="M0 5.5H24V22.5C24 23.2956 23.6839 24.0587 23.1213 24.6213C22.5587 25.1839 21.7956 25.5 21 25.5H3C2.20435 25.5 1.44129 25.1839 0.87868 24.6213C0.316071 24.0587 0 23.2956 0 22.5V5.5ZM2 7.5V22.5C2 23.052 2.448 23.5 3 23.5H21C21.552 23.5 22 23.052 22 22.5V7.5H2Z" fill="#1C1C1C"/>
<path d="M12 0.5C8.836 0.5 7.3448 2.928 6.676 4.9336C6.6128 5.1232 6.556 5.3128 6.504 5.5H8.596C9.1808 3.788 10.188 2.5 12 2.5C13.8128 2.5 14.8192 3.788 15.404 5.5H17.496C17.444 5.3128 17.3872 5.124 17.324 4.9336C16.6552 2.928 15.164 0.5 12 0.5ZM8.072 7.9384C8.088 7.8008 8.1056 7.6536 8.128 7.5H6.1096L6.084 7.7176C6.04081 8.10834 6.01333 8.50066 6.0016 8.8936L6 8.968V9C6 9.26522 6.10536 9.51957 6.29289 9.70711C6.48043 9.89464 6.73478 10 7 10C7.26522 10 7.51957 9.89464 7.70711 9.70711C7.89464 9.51957 8 9.26522 8 9V8.9888L8.0008 8.9376C8.0024 8.8912 8.004 8.8184 8.0088 8.7256C8.0168 8.5376 8.036 8.2664 8.072 7.9384ZM17.9888 8.6304C17.9706 8.25247 17.9377 7.87539 17.8904 7.5H15.872C15.9304 7.90653 15.9704 8.31547 15.992 8.7256C15.996 8.8192 15.9984 8.8912 15.9992 8.9376V8.9888L16 9V9.0016C16.0002 9.26682 16.1058 9.52109 16.2935 9.70847C16.4811 9.89586 16.7356 10.001 17.0008 10.0008C17.266 10.0006 17.5203 9.89503 17.7077 9.70734C17.8951 9.51966 18.0002 9.26522 18 9V8.968C17.999 8.85539 17.9953 8.74283 17.9888 8.6304Z" fill="#1C1C1C"/>
</svg>
