<svg width="25" height="24" viewBox="0 0 25 24" fill="none" xmlns="http://www.w3.org/2000/svg">
<path fill-rule="evenodd" clip-rule="evenodd" d="M6.5 2C4.16 2 2 3.9384 2 7.5C2 8.6616 2.4488 9.9832 3.248 11.3928C4.04 12.7928 5.136 14.2048 6.3272 15.528C8.684 18.1456 11.332 20.3216 12.5 21.2392C13.668 20.3216 16.316 18.1456 18.6728 15.5272C19.864 14.2048 20.9592 12.7928 21.7528 11.3928C22.5512 9.9832 23 8.6616 23 7.5C23 3.9384 20.84 2 18.5 2C16.8288 2 15.6864 2.7192 14.8696 3.4808C14.4696 3.8552 14.156 4.2312 13.8856 4.556L13.8536 4.5936C13.7256 4.7472 13.5784 4.924 13.4408 5.06C13.3712 5.1288 13.2728 5.22 13.1512 5.2992C12.9582 5.42791 12.732 5.49768 12.5 5.5C12.188 5.5 11.9576 5.3696 11.8488 5.2992C11.7444 5.22948 11.6474 5.14934 11.5592 5.06C11.4144 4.9108 11.2764 4.75518 11.1456 4.5936L11.1152 4.556C10.8432 4.2312 10.5312 3.8552 10.1304 3.4808C9.3144 2.7192 8.1704 2 6.5 2ZM0 7.5C0 3.0616 2.84 0 6.5 0C8.8288 0 10.436 1.0304 11.4952 2.0192C11.9088 2.4056 12.2448 2.7904 12.5 3.0944C12.756 2.7904 13.0912 2.4056 13.5048 2.0192C14.564 1.0304 16.172 0 18.5 0C22.16 0 25 3.0616 25 7.5C25 9.1464 24.376 10.82 23.492 12.3792C22.6032 13.9488 21.4064 15.4808 20.1592 16.8656C17.6648 19.636 14.884 21.912 13.6976 22.8416C13.3566 23.1111 12.9347 23.2578 12.5 23.2578C12.0653 23.2578 11.6434 23.1111 11.3024 22.8416C10.116 21.912 7.3344 19.636 4.8408 16.8656C3.5936 15.4816 2.3968 13.9488 1.508 12.3792C0.624 10.8192 0 9.1472 0 7.5Z" fill="#1C1C1C"/>
</svg>
