<svg width="20" height="20" viewBox="0 0 20 20" fill="none" xmlns="http://www.w3.org/2000/svg">
<path fill-rule="evenodd" clip-rule="evenodd" d="M5 0C2.23858 0 0 2.23858 0 5V8H2V5C2 3.34315 3.34315 2 5 2H8V0H5ZM13 0H12V2H15C16.6569 2 18 3.34315 18 5V8H20V5C20 2.23858 17.7614 0 15 0H13ZM2 13V12H0V15C0 17.7614 2.23858 20 5 20H8V18H5C3.34315 18 2 16.6569 2 15V13ZM20 13V12H18V15C18 16.6569 16.6569 18 15 18H12V20H15C17.7614 20 20 17.7614 20 15V13ZM6.5 9.0084C6.5 7.62303 7.62303 6.5 9.0084 6.5C10.3937 6.5 11.5167 7.62303 11.5167 9.0084C11.5167 9.7002 11.2367 10.3265 10.7837 10.7803L10.7803 10.7837C10.3265 11.2367 9.7002 11.5167 9.0084 11.5167C7.62303 11.5167 6.5 10.3937 6.5 9.0084ZM13.5167 9.0084C13.5167 9.8912 13.2629 10.7148 12.8244 11.4102L13.7071 12.2929L14.4142 13L13 14.4142L12.2929 13.7071L11.4102 12.8244C10.7148 13.2629 9.8912 13.5167 9.0084 13.5167C6.51846 13.5167 4.5 11.4983 4.5 9.0084C4.5 6.51846 6.51846 4.5 9.0084 4.5C11.4983 4.5 13.5167 6.51846 13.5167 9.0084Z" fill="#12151B"/>
</svg>
