<svg width="22" height="17" viewBox="0 0 22 17" fill="none" xmlns="http://www.w3.org/2000/svg">
<path d="M1 0.5C0.734784 0.5 0.48043 0.605357 0.292893 0.792893C0.105357 0.98043 0 1.23478 0 1.5C0 1.76522 0.105357 2.01957 0.292893 2.20711C0.48043 2.39464 0.734784 2.5 1 2.5H21C21.2652 2.5 21.5196 2.39464 21.7071 2.20711C21.8946 2.01957 22 1.76522 22 1.5C22 1.23478 21.8946 0.98043 21.7071 0.792893C21.5196 0.605357 21.2652 0.5 21 0.5H1ZM0 8.5C0 8.23478 0.105357 7.98043 0.292893 7.79289C0.48043 7.60536 0.734784 7.5 1 7.5H21C21.2652 7.5 21.5196 7.60536 21.7071 7.79289C21.8946 7.98043 22 8.23478 22 8.5C22 8.76522 21.8946 9.01957 21.7071 9.20711C21.5196 9.39464 21.2652 9.5 21 9.5H1C0.734784 9.5 0.48043 9.39464 0.292893 9.20711C0.105357 9.01957 0 8.76522 0 8.5ZM0 15.5C0 15.2348 0.105357 14.9804 0.292893 14.7929C0.48043 14.6054 0.734784 14.5 1 14.5H21C21.2652 14.5 21.5196 14.6054 21.7071 14.7929C21.8946 14.9804 22 15.2348 22 15.5C22 15.7652 21.8946 16.0196 21.7071 16.2071C21.5196 16.3946 21.2652 16.5 21 16.5H1C0.734784 16.5 0.48043 16.3946 0.292893 16.2071C0.105357 16.0196 0 15.7652 0 15.5Z" fill="black"/>
</svg>
