<svg width="104" height="104" viewBox="0 0 104 104" fill="none" xmlns="http://www.w3.org/2000/svg">
    <path
        d="M103.989 36.751V85.5181C103.989 90.8465 99.4987 95.1682 94.0412 95.0187C88.7729 94.8724 84.6487 90.4833 84.6487 85.3036V36.751C84.6487 35.9735 85.2914 35.3389 86.086 35.3389H90.0136C90.8074 35.3389 91.4501 35.9702 91.4501 36.751V85.406C91.4501 86.8652 92.6559 88.2432 94.1411 88.335C95.81 88.4366 97.1986 87.1333 97.1986 85.5181V36.751C97.1986 35.9735 97.8413 35.3389 98.6351 35.3389H102.563C103.357 35.3389 104 35.9702 104 36.751H103.989ZM17.0926 70.976H1.4365C0.641875 70.976 0 71.6073 0 72.3881V76.2783C0 77.0559 0.641875 77.6872 1.43731 77.6872H5.9345V102.588C5.9345 103.369 6.57637 104 7.37181 104H11.1646C11.9551 104 12.6011 103.369 12.6011 102.588V77.6872H17.0991C17.8896 77.6872 18.5364 77.0559 18.5364 76.2751V72.3848C18.5364 71.6048 17.8937 70.9727 17.0983 70.9727L17.0917 70.976H17.0926ZM82.8181 51.9878C82.8181 61.3803 75.0425 69.0178 65.4875 69.0178H65.26C55.705 69.0178 47.9294 61.3771 47.9294 51.9878C47.9294 42.5994 55.705 34.9578 65.26 34.9578H65.4875C75.0457 34.9578 82.8181 42.5994 82.8181 51.9878ZM76.1443 51.9878C76.1443 46.2175 71.3635 41.5163 65.4875 41.5163H65.2519C59.3799 41.5163 54.6 46.2142 54.6 51.9878C54.6 57.7623 59.3775 62.4561 65.2519 62.4561H65.4875C71.3602 62.4561 76.1443 57.7623 76.1443 51.9878ZM102.553 97.3164H86.0819C85.2881 97.3164 84.6454 97.9477 84.6454 98.7285V102.588C84.6454 103.369 85.2881 104 86.0819 104H102.553C103.347 104 103.989 103.369 103.989 102.588V98.7285C103.989 97.9477 103.347 97.3164 102.553 97.3164ZM1.43731 33.0038H9.25763C10.049 33.0038 10.6949 32.3725 10.6949 31.5917V27.7323C10.6949 26.9547 10.0523 26.3202 9.25763 26.3202H6.79819V1.41216C6.79819 0.631345 6.15631 3.22894e-05 5.36088 3.22894e-05H1.4365C0.6435 3.22894e-05 0 0.631345 0 1.41216V31.5949C0 32.3725 0.641875 33.007 1.43731 33.007V33.0038ZM91.4436 6.68041H102.553C103.347 6.68041 103.989 6.04909 103.989 5.26828V1.41216C103.989 0.631345 103.347 3.22894e-05 102.553 3.22894e-05H86.0819C85.2881 3.22894e-05 84.6454 0.631345 84.6454 1.41216V31.5949C84.6454 32.3725 85.2881 33.007 86.0819 33.007H102.553C103.347 33.007 103.989 32.3757 103.989 31.5949V27.7355C103.989 26.958 103.347 26.3234 102.553 26.3234H91.4436V19.8494H102.021C102.815 19.8494 103.458 19.2181 103.458 18.4373V14.5779C103.458 13.8003 102.815 13.1658 102.021 13.1658H91.4436V6.68041ZM12.6051 31.2082L21.9042 1.02134C21.9981 0.723598 22.185 0.463778 22.4374 0.279978C22.6897 0.0961786 22.9944 -0.00193164 23.3066 3.22894e-05H28.2498C28.5467 -0.00196219 28.8368 0.0884857 29.0799 0.258828C29.3231 0.42917 29.5072 0.670961 29.6067 0.950657L40.2269 31.1188C40.5551 32.0523 39.8499 33.0265 38.8416 33.0265H34.7263C34.4295 33.0279 34.1397 32.9372 33.8966 32.767C33.6536 32.5967 33.4694 32.3553 33.3694 32.0759L31.9353 28.0028C31.833 27.718 31.6447 27.4721 31.3966 27.2989C31.1484 27.1257 30.8526 27.0338 30.55 27.036H22.0732C21.4272 27.036 20.8577 27.4495 20.6708 28.0573L19.448 32.0223C19.3555 32.3139 19.1722 32.5683 18.9249 32.7484C18.6776 32.9285 18.3792 33.0248 18.0732 33.0233H13.9701C13.0057 33.0233 12.3151 32.11 12.5946 31.2033L12.6051 31.2082ZM23.0506 20.3597H29.2484L26.3534 12.1347C26.2251 11.7683 25.6937 11.7788 25.5791 12.1485L23.0506 20.3564V20.3597ZM42.3191 31.5949V1.43816C42.3191 0.661407 42.9609 0.0260323 43.7564 0.0260323H70.1992C76.7479 0.0260323 82.3899 5.28778 82.4273 11.7203C82.4517 16.1566 79.9614 20.0322 76.2791 22.0553L82.03 30.823C82.6451 31.7607 81.9609 32.9989 80.8251 32.9989H76.1548C75.6673 32.9989 75.2115 32.7552 74.9491 32.3546L69.173 23.5528H50.5546C49.7632 23.5528 49.1172 24.1841 49.1172 24.9649V31.5941C49.1172 32.3717 48.4754 33.0062 47.6807 33.0062H43.7531C42.9617 33.0062 42.315 32.3749 42.315 31.5941H42.3191V31.5949ZM49.1172 16.8765H70.4584C73.5605 16.8765 76.037 14.1749 75.5771 11.0419C75.2082 8.51666 72.8764 6.71128 70.2756 6.71128H49.1181V16.8757L49.1172 16.8765ZM0 67.2287V36.7543C0 35.9743 0.641875 35.3422 1.43731 35.3422H29.1964C38.7091 35.3422 46.4157 43.0853 46.1289 52.494C45.8567 61.5502 38.0526 68.6376 28.8332 68.6376H1.43812C0.641875 68.6376 0 68.0063 0 67.2255V67.2287ZM6.66331 62.0897H28.9437C34.5093 62.0897 39.2551 57.8468 39.4656 52.3787C39.6874 46.6318 34.996 41.8893 29.1956 41.8893H6.66412L6.66331 62.0897ZM27.5413 77.6734H80.9632C81.7578 77.6734 82.3997 77.0421 82.3997 76.2613V72.4019C82.3997 71.6219 81.7578 70.9898 80.9632 70.9898H22.1837C21.3931 70.9898 20.7472 71.6211 20.7472 72.4019V102.585C20.7472 103.365 21.3891 103.997 22.1837 103.997H80.9632C81.7578 103.997 82.3997 103.365 82.3997 102.585V98.7253C82.3997 97.9445 81.7578 97.3132 80.9632 97.3132H27.5438V90.84H80.4513C81.2451 90.84 81.8878 90.2087 81.8878 89.4278V85.5685C81.8878 84.7877 81.2459 84.1563 80.4505 84.1563H27.5462V77.6628L27.5413 77.6734Z"
        fill="#FF3F52" />
</svg>