<svg width="12" height="12" viewBox="0 0 12 12" fill="none" xmlns="http://www.w3.org/2000/svg">
<path fill-rule="evenodd" clip-rule="evenodd" d="M9.6099 11.9263C9.41413 12.031 9.18778 12.034 8.9699 11.8708L6.30825 9.85913C6.19248 9.78342 6.10119 9.75098 6.00707 9.75098C5.89884 9.75098 5.7986 9.77359 5.67389 9.82767L3.04519 11.8334C2.83671 12.0148 2.60707 12.0119 2.40142 11.9126C2.38387 11.9042 2.36661 11.8952 2.34966 11.8855C2.31019 11.8652 2.27437 11.8379 2.24377 11.8049C2.26589 11.8285 2.21271 11.7784 2.17883 11.7361C2.10989 11.6543 2.06367 11.5543 2.04517 11.4471C2.02668 11.3398 2.03661 11.2293 2.07389 11.1275L3.10495 7.82585C3.13627 7.7294 3.13687 7.62495 3.10668 7.5281C3.07649 7.43126 3.01711 7.34721 2.93742 7.28853L0.269183 5.25034C0.160283 5.17577 0.077765 5.066 0.0342521 4.9378C-0.0092607 4.80959 -0.011372 4.67003 0.0282412 4.54046C0.0804765 4.28778 0.320006 4.07442 0.622124 4.07442H3.95013C4.14448 4.07442 4.3266 3.9348 4.39295 3.73767L5.41742 0.459159C5.50542 0.1347 5.76472 0 6.00754 0C6.12001 0 6.21554 0.0176978 6.32942 0.0899637C6.44566 0.164688 6.5346 0.280215 6.59342 0.443919L7.61931 3.72882C7.68848 3.9348 7.8706 4.07442 8.06496 4.07442H11.3723C11.5854 4.07442 11.7558 4.17372 11.865 4.33202C11.8932 4.37331 11.9163 4.41658 11.929 4.44509C12.0673 4.68106 12.0033 5.04485 11.7393 5.2405L9.05837 7.28853C8.97758 7.34841 8.91773 7.43421 8.88792 7.53289C8.8581 7.63157 8.85995 7.73772 8.89319 7.83519L9.90966 11.1157C10.0461 11.4495 9.88802 11.7793 9.65084 11.9027C9.63755 11.9113 9.62389 11.9191 9.6099 11.9263Z" fill="#F4AF48"/>
</svg>
