<svg width="24" height="24" viewBox="0 0 24 24" fill="none" xmlns="http://www.w3.org/2000/svg">
<path fill-rule="evenodd" clip-rule="evenodd" d="M12 2C10.9391 2 9.92172 2.42143 9.17157 3.17157C8.42143 3.92172 8 4.93913 8 6C8 7.06087 8.42143 8.07828 9.17157 8.82843C9.92172 9.57857 10.9391 10 12 10C13.0609 10 14.0783 9.57857 14.8284 8.82843C15.5786 8.07828 16 7.06087 16 6C16 4.93913 15.5786 3.92172 14.8284 3.17157C14.0783 2.42143 13.0609 2 12 2ZM6 6C6 5.21207 6.15519 4.43185 6.45672 3.7039C6.75825 2.97595 7.20021 2.31451 7.75736 1.75736C8.31451 1.20021 8.97595 0.758251 9.7039 0.456723C10.4319 0.155194 11.2121 0 12 0C12.7879 0 13.5681 0.155194 14.2961 0.456723C15.0241 0.758251 15.6855 1.20021 16.2426 1.75736C16.7998 2.31451 17.2417 2.97595 17.5433 3.7039C17.8448 4.43185 18 5.21207 18 6C18 7.5913 17.3679 9.11742 16.2426 10.2426C15.1174 11.3679 13.5913 12 12 12C10.4087 12 8.88258 11.3679 7.75736 10.2426C6.63214 9.11742 6 7.5913 6 6ZM12 15.5C7.6272 15.5 4.9744 16.4568 3.488 17.2912C2.4912 17.8512 2 19.06 2 20.5632V22H22V20.564C22 19.06 21.5088 17.8512 20.512 17.2912C19.0256 16.4568 16.3728 15.5 12 15.5ZM2.5096 15.5472C4.328 14.5264 7.3256 13.5 12 13.5C16.6752 13.5 19.672 14.5264 21.4904 15.5472C23.4008 16.6192 24 18.7328 24 20.5632V22C24 22.5304 23.7893 23.0391 23.4142 23.4142C23.0391 23.7893 22.5304 24 22 24H2C1.46957 24 0.960859 23.7893 0.585786 23.4142C0.210714 23.0391 0 22.5304 0 22V20.564C0 18.732 0.5992 16.62 2.5096 15.5472Z" fill="#1C1C1C"/>
</svg>
